<svg width="1200" height="900" viewBox="0 0 1200 900" fill="none" xmlns="http://www.w3.org/2000/svg">
  <rect width="1200" height="900" fill="#08111D"/>
  <rect width="1200" height="560" fill="url(#sky)"/>
  <path d="M0 595C128 543 255 520 380 536C486 550 556 608 655 608C775 608 877 504 1021 504C1088 504 1148 519 1200 542V900H0V595Z" fill="#0E1725"/>
  <rect x="360" y="280" width="610" height="306" rx="24" fill="#0F1826" stroke="#44608F" stroke-width="3"/>
  <rect x="360" y="346" width="610" height="240" rx="16" fill="#142132"/>
  <rect x="412" y="360" width="178" height="176" rx="6" fill="url(#glassA)"/>
  <rect x="618" y="360" width="142" height="176" rx="6" fill="#2B3D5B"/>
  <rect x="788" y="360" width="132" height="176" rx="6" fill="url(#glassB)"/>
  <path d="M0 653L522 612L654 900H0V653Z" fill="#101926"/>
  <path d="M652 611H1200V900H780L652 611Z" fill="#151F2F"/>
  <path d="M690 630H1138L1038 900H816L690 630Z" fill="url(#water)"/>
  <path d="M1098 180C1098 233 1055 276 1002 276C949 276 906 233 906 180C906 127 949 84 1002 84C1055 84 1098 127 1098 180Z" fill="url(#moon)"/>
  <defs>
    <linearGradient id="sky" x1="600" y1="0" x2="600" y2="560" gradientUnits="userSpaceOnUse">
      <stop stop-color="#12233E"/>
      <stop offset="1" stop-color="#09121E"/>
    </linearGradient>
    <linearGradient id="glassA" x1="501" y1="360" x2="501" y2="536" gradientUnits="userSpaceOnUse">
      <stop stop-color="#88ADFB" stop-opacity="0.42"/>
      <stop offset="1" stop-color="#24374E" stop-opacity="0.96"/>
    </linearGradient>
    <linearGradient id="glassB" x1="854" y1="360" x2="854" y2="536" gradientUnits="userSpaceOnUse">
      <stop stop-color="#E3D6C0" stop-opacity="0.24"/>
      <stop offset="1" stop-color="#223348" stop-opacity="0.96"/>
    </linearGradient>
    <linearGradient id="water" x1="690" y1="630" x2="1138" y2="900" gradientUnits="userSpaceOnUse">
      <stop stop-color="#16365B"/>
      <stop offset="0.55" stop-color="#285C9A"/>
      <stop offset="1" stop-color="#112744"/>
    </linearGradient>
    <radialGradient id="moon" cx="0" cy="0" r="1" gradientUnits="userSpaceOnUse" gradientTransform="translate(1002 180) rotate(90) scale(96)">
      <stop stop-color="#7AA6FF" stop-opacity="0.85"/>
      <stop offset="1" stop-color="#7AA6FF" stop-opacity="0"/>
    </radialGradient>
  </defs>
</svg>
